<?xml version="1.0" ?>
<!-- Uploaded to: SVG Repo, www.svgrepo.com, Generator: SVG Repo Mixer Tools -->
<svg width="800px" height="800px" viewBox="0 0 24 24" version="1.1" xml:space="preserve" xmlns="http://www.w3.org/2000/svg" xmlns:xlink="http://www.w3.org/1999/xlink">
<style type="text/css">
	.st0{display:none;}
	.st1{display:inline;}
	.st2{opacity:0.2;fill:none;stroke:#000000;stroke-width:5.000000e-02;stroke-miterlimit:10;}
</style>
<g class="st0" id="grid_system"/>
<g id="_icons">
<path d="M18.7,5.1c-0.2-0.6-0.6-1.1-1.2-1.4c-0.9-0.5-2-0.6-2.9-0.1L11.8,5H6C3.8,5,2,6.8,2,9v7c0,2.2,1.8,4,4,4h6h6   c2.2,0,4-1.8,4-4V9C22,7,20.6,5.4,18.7,5.1z M11,18H6c-1.1,0-2-0.9-2-2V9c0-1.1,0.9-2,2-2h5V18z M15.3,16.2L13,17.4V6.6l2.6-1.3   c0.4-0.2,0.8,0,1,0C16.7,5.5,17,5.7,17,6.2v7.3C17,14.7,16.4,15.7,15.3,16.2z M20,16c0,1.1-0.9,2-2,2h-1.8c1.7-0.9,2.8-2.6,2.8-4.5   V7.3c0.6,0.3,1,1,1,1.7V16z"/>
</g>
</svg>